<?xml version="1.0" encoding="UTF-8"?>
<svg id="Layer_2" data-name="Layer 2" xmlns="http://www.w3.org/2000/svg" viewBox="0 0 2354.49 146.12">
  <defs>
    <style>
      .cls-1 {
        fill: #fff;
      }
    </style>
  </defs>
  <g id="Layer_1-2" data-name="Layer 1">
    <g>
      <path class="cls-1" d="M428.5,2.53s4.76.26,2.64,4.23-22.98,39.89-22.98,39.89c0,0-1.32,2.91-5.02,2.91h-66.84s-16.64.79-26.42,14.27c-13.18,18.17-23.99,38.37-35.37,57.68-2.68,4.56-5.36,9.12-8.03,13.69-3.08,5.27-4.03,10.7-11.08,10.79-4.48.05-8.96,0-13.44,0h-31.42s-3.96-1.06-2.38-4.76,22.45-38.3,22.45-38.3c0,0,3.43-5.55-4.49-5.28s-38.83.53-38.83.53c0,0-6.34-.26-3.17-6.08s20.34-33.29,20.34-33.29c0,0,2.91-7.13,10.57-7.93,12.34-1.28,25.16-.47,37.59-.51,17.11,0,34.21-.08,51.32,0,5.85.03,11.1-2.7,14.91-7.15,4.76-5.55,19.81-29.06,19.81-29.06,0,0,7.13-12.68,19.55-11.62,12.42,1.06,70.27,0,70.27,0Z"/>
      <path class="cls-1" d="M.46,6.29C-.58,2.58-.11,2.63,4.43,2.62c14.36-.05,28.71-.1,43.07-.15,2.69,0,5.52.02,7.86,1.35,2.51,1.43,6.25,3.86,8.02,6.14,5.19,6.7,12.34,19.17,17.73,26.22,4.34,5.67,8.06,11.54,14.39,13.29,4.41,1.22,7.89.91,17.6.86,6.04-.03,6.29-.22,18.61-.11,16.24.14,15.27,6.77,29.05,28.52,9.81,15.48,25.11,43.1,33.75,57.05,1.99,3.21,3.33,6.75,2.64,8.17-1.41,2.93-3.69,2.01-7.86,2.04-13.08.08-26.08-.02-39.52-.02,0,0-5.52.02-8.12-5.31-3.89-7.98-31.8-56.46-42.9-71.96-7.68-10.72-9.29-12.52-23.07-17.92-6.71-2.63-28.81-1.47-36.05-1.4-17.04.17-14.72-1.26-17.98-6.27-3.83-5.9-4.08-7.56-7.97-13.75C12.89,28.08,1.31,9.3.46,6.29Z"/>
      <path class="cls-1" d="M695.75,2.49l-58.47,137.59c-.77,1.78-1.88,3.19-3.35,4.2-1.46,1.02-3.09,1.53-4.87,1.53s-3.44-.51-4.97-1.53c-1.53-1.01-2.67-2.42-3.44-4.2L561.79,2.49h18.16l49,114.23L677.41,2.49h18.34Z"/>
      <path class="cls-1" d="M863.73,127.28v16.62h-95.74c-2.68,0-4.91-.89-6.69-2.67-1.79-1.79-2.67-3.95-2.67-6.5V2.49h16.62v124.79h88.48Z"/>
      <path class="cls-1" d="M1051.01,143.9h-18.73l-47.99-113.66-48.71,113.66h-18.53L975.9,5.74c.77-1.66,1.91-2.99,3.44-4.02,1.53-1.01,3.19-1.52,4.97-1.52s3.41.51,4.87,1.52c1.47,1.03,2.58,2.36,3.35,4.02l58.48,138.16Z"/>
      <path class="cls-1" d="M1228.92,37.65c-6.38-10.83-15.04-19.4-25.99-25.7-10.96-6.31-22.94-9.46-35.93-9.46h-44.33c-2.43,0-4.5.86-6.22,2.58-1.72,1.72-2.57,3.79-2.57,6.21v123.83c0,2.42.85,4.49,2.57,6.21,1.72,1.72,3.86,2.58,6.41,2.58h44.14c13.12,0,25.13-3.12,36.02-9.36,10.89-6.24,19.52-14.78,25.9-25.61,6.36-10.83,9.55-22.74,9.55-35.73s-3.19-24.72-9.55-35.55ZM1214.58,100.62c-4.84,8.21-11.43,14.71-19.77,19.49-8.35,4.78-17.62,7.17-27.81,7.17h-36.5V19.11h36.5c10.06,0,19.3,2.39,27.71,7.17,8.41,4.78,15.03,11.31,19.87,19.59,4.84,8.28,7.27,17.39,7.27,27.33s-2.43,19.2-7.27,27.42Z"/>
      <path class="cls-1" d="M1300.87,16.43c-.96-1.53-1.43-3.18-1.43-4.97,0-2.68.96-4.94,2.87-6.78,1.91-1.85,4.14-2.77,6.69-2.77,2.68,0,4.94.93,6.78,2.77,1.85,1.85,2.77,4.11,2.77,6.78,0,1.4-.26,2.8-.76,4.2l-5.73,20.64h-7.26v-16.43c-1.66-.76-2.96-1.91-3.92-3.44Z"/>
      <path class="cls-1" d="M1414.76,141.51c-10-2.48-19.65-6.21-28.95-11.18l7.26-14.91c8.28,4.33,16.82,7.64,25.61,9.94s18.03,3.51,27.71,3.63c9.81.26,18.31-.57,25.51-2.48,7.2-1.91,12.77-4.68,16.72-8.31,3.95-3.63,5.99-7.93,6.11-12.9.13-6.24-1.78-11.11-5.73-14.62-3.95-3.5-9.01-6.05-15.19-7.64-6.18-1.59-14.3-3.09-24.37-4.49-13.25-1.65-23.7-3.44-31.34-5.35-7.64-1.91-14.27-5.48-19.87-10.7-5.61-5.22-8.28-12.74-8.03-22.55.13-8.28,2.9-15.48,8.31-21.59,5.41-6.11,12.87-10.7,22.36-13.76,9.49-3.06,20.22-4.46,32.2-4.2,9.55.13,19.01,1.24,28.38,3.34,9.36,2.1,18.06,5,26.09,8.7l-6.69,14.71c-15.03-6.75-31.02-10.32-47.97-10.7-9.3-.25-17.29.45-23.98,2.1-6.69,1.66-11.94,4.3-15.77,7.93-3.82,3.63-5.8,8.19-5.92,13.66-.26,5.73,1.59,10.1,5.54,13.09,3.95,3,8.53,5.03,13.76,6.12,5.22,1.08,13.12,2.33,23.7,3.73,12.61,1.53,23.19,3.47,31.72,5.83,8.53,2.36,15.7,6.47,21.5,12.33,5.8,5.86,8.57,13.95,8.31,24.27-.13,8.28-3.03,15.51-8.7,21.69-5.67,6.18-13.44,10.86-23.31,14.05-9.87,3.18-21.05,4.65-33.54,4.4-10.96-.26-21.44-1.62-31.44-4.11Z"/>
      <polygon class="cls-1" points="1794.37 2.49 1794.37 19.11 1742.78 19.11 1742.78 143.9 1726.15 143.9 1726.15 19.11 1674.56 19.11 1674.56 2.49 1794.37 2.49"/>
      <path class="cls-1" d="M1881.52,19.11v45.87h85.8v16.43h-85.8v45.87h91.53v16.62h-98.79c-2.68,0-4.91-.89-6.69-2.67-1.79-1.79-2.68-3.95-2.68-6.5V11.66c0-2.55.89-4.71,2.68-6.5,1.78-1.78,4.01-2.67,6.69-2.67h98.79v16.62h-91.53Z"/>
      <path class="cls-1" d="M2072.05,136.06c-11.08-6.62-19.87-15.57-26.37-26.85-6.5-11.27-9.75-23.6-9.75-36.98s3.25-25.42,9.75-36.5c6.5-11.08,15.25-19.81,26.28-26.18,11.02-6.37,23.15-9.55,36.4-9.55,10.83,0,21.05,2.33,30.67,6.98,9.62,4.65,17.8,11.05,24.56,19.21l-12.61,10.7c-4.97-6.37-11.21-11.37-18.73-15-7.52-3.63-15.48-5.45-23.89-5.45-10.19,0-19.52,2.45-28,7.36-8.47,4.91-15.19,11.63-20.16,20.16-4.97,8.54-7.45,17.96-7.45,28.28s2.48,20.04,7.45,28.76c4.97,8.73,11.69,15.67,20.16,20.83,8.47,5.16,17.8,7.74,28,7.74,9.55,0,18.31-1.97,26.28-5.92,7.96-3.95,14.43-9.62,19.4-17.01l13,9.94c-6.5,9.43-14.88,16.69-25.13,21.79-10.26,5.1-21.44,7.64-33.54,7.64-13.12,0-25.22-3.31-36.31-9.94Z"/>
      <polygon class="cls-1" points="2354.49 2.49 2354.49 143.9 2338.05 143.9 2338.05 81.41 2250.34 81.41 2250.34 143.9 2233.71 143.9 2233.71 2.49 2250.34 2.49 2250.34 64.98 2338.05 64.98 2338.05 2.49 2354.49 2.49"/>
    </g>
  </g>
</svg>